G04 ================== begin FILE IDENTIFICATION RECORD ==================*
G04 Layout Name:  C:/USERS/USER/DESKTOP/CHOPPING WAVE OSC/allegro/CHOPPING WAVE OSC.brd*
G04 Film Name:    SilkT*
G04 File Format:  Gerber RS274X*
G04 File Origin:  Cadence Allegro 17.2-P019*
G04 Origin Date:  Wed Jul 31 11:06:13 2019*
G04 *
G04 Layer:  REF DES/SILKSCREEN_TOP*
G04 Layer:  PACKAGE GEOMETRY/SILKSCREEN_TOP*
G04 Layer:  BOARD GEOMETRY/SILKSCREEN_TOP*
G04 *
G04 Offset:    (0.000 0.000)*
G04 Mirror:    No*
G04 Mode:      Positive*
G04 Rotation:  0*
G04 FullContactRelief:  No*
G04 UndefLineWidth:     0.200*
G04 ================== end FILE IDENTIFICATION RECORD ====================*
%FSLAX25Y25*MOMM*%
%IR0*IPPOS*OFA0.00000B0.00000*MIA0B0*SFA1.00000B1.00000*%
%ADD10C,.5*%
%ADD11C,.2*%
G75*
%LPD*%
G75*
G54D10*
G01X3513300Y6766700D02*
X3493300Y6786700D01*
X3470000Y6800000D01*
X3443300D01*
X3413300Y6780000D01*
X3390000Y6746700D01*
X3373300Y6706700D01*
X3360000Y6640000D01*
X3356700Y6580000D01*
X3363300Y6520000D01*
X3373300Y6480000D01*
X3393300Y6440000D01*
X3416700Y6413300D01*
X3440000Y6400000D01*
X3463300D01*
X3486700Y6413300D01*
X3506700Y6433300D01*
X3523300Y6460000D01*
G01X3585200Y6400000D02*
Y6800000D01*
G01X3725200D02*
Y6400000D01*
G01Y6600000D02*
X3585200D01*
G01X3870400Y6400000D02*
X3843700Y6406700D01*
X3820400Y6433300D01*
X3800400Y6473300D01*
X3787100Y6520000D01*
X3780400Y6573300D01*
Y6626700D01*
X3787100Y6680000D01*
X3800400Y6726700D01*
X3820400Y6766700D01*
X3843700Y6793300D01*
X3870400Y6800000D01*
X3897100Y6793300D01*
X3920400Y6766700D01*
X3940400Y6726700D01*
X3953700Y6680000D01*
X3960400Y6626700D01*
Y6573300D01*
X3953700Y6520000D01*
X3940400Y6473300D01*
X3920400Y6433300D01*
X3897100Y6406700D01*
X3870400Y6400000D01*
G01X4018900D02*
Y6800000D01*
X4098900D01*
X4125600Y6780000D01*
X4145600Y6733300D01*
X4152300Y6680000D01*
X4145600Y6626700D01*
X4128900Y6586700D01*
X4098900Y6566700D01*
X4018900D01*
G01X4234100Y6400000D02*
Y6800000D01*
X4314100D01*
X4340800Y6780000D01*
X4360800Y6733300D01*
X4367500Y6680000D01*
X4360800Y6626700D01*
X4344100Y6586700D01*
X4314100Y6566700D01*
X4234100D01*
G01X4476000Y6800000D02*
X4556000D01*
G01X4516000D02*
Y6400000D01*
G01X4476000D02*
X4556000D01*
G01X4654500D02*
Y6800000D01*
X4807900Y6400000D01*
Y6800000D01*
G01X4966400Y6600000D02*
X5033100D01*
Y6480000D01*
X5013100Y6440000D01*
X4989700Y6413300D01*
X4956400Y6400000D01*
X4923100Y6413300D01*
X4899700Y6440000D01*
X4879700Y6480000D01*
X4866400Y6526700D01*
X4859700Y6580000D01*
Y6626700D01*
X4866400Y6666700D01*
X4879700Y6713300D01*
X4899700Y6753300D01*
X4919700Y6780000D01*
X4946400Y6800000D01*
X4969700D01*
X4996400Y6786700D01*
X5016400Y6760000D01*
G01X5276800Y6800000D02*
X5323500Y6400000D01*
X5376800Y6800000D01*
X5430100Y6400000D01*
X5476800Y6800000D01*
G01X5508700Y6400000D02*
X5592000Y6800000D01*
X5675300Y6400000D01*
G01X5645300Y6540000D02*
X5538700D01*
G01X5723900Y6800000D02*
X5807200Y6400000D01*
X5890500Y6800000D01*
G01X6089100Y6400000D02*
X5955700D01*
Y6800000D01*
X6089100D01*
G01X6035700Y6606700D02*
X5955700D01*
G01X6452800Y6400000D02*
X6426100Y6406700D01*
X6402800Y6433300D01*
X6382800Y6473300D01*
X6369500Y6520000D01*
X6362800Y6573300D01*
Y6626700D01*
X6369500Y6680000D01*
X6382800Y6726700D01*
X6402800Y6766700D01*
X6426100Y6793300D01*
X6452800Y6800000D01*
X6479500Y6793300D01*
X6502800Y6766700D01*
X6522800Y6726700D01*
X6536100Y6680000D01*
X6542800Y6626700D01*
Y6573300D01*
X6536100Y6520000D01*
X6522800Y6473300D01*
X6502800Y6433300D01*
X6479500Y6406700D01*
X6452800Y6400000D01*
G01X6598000Y6453300D02*
X6624700Y6420000D01*
X6654700Y6400000D01*
X6681300D01*
X6708000Y6420000D01*
X6728000Y6453300D01*
X6738000Y6500000D01*
X6731300Y6546700D01*
X6714700Y6586700D01*
X6684700Y6613300D01*
X6644700Y6626700D01*
X6621300Y6653300D01*
X6611300Y6700000D01*
X6618000Y6746700D01*
X6634700Y6780000D01*
X6658000Y6800000D01*
X6681300D01*
X6704700Y6786700D01*
X6724700Y6753300D01*
G01X6956500Y6766700D02*
X6936500Y6786700D01*
X6913200Y6800000D01*
X6886500D01*
X6856500Y6780000D01*
X6833200Y6746700D01*
X6816500Y6706700D01*
X6803200Y6640000D01*
X6799900Y6580000D01*
X6806500Y6520000D01*
X6816500Y6480000D01*
X6836500Y6440000D01*
X6859900Y6413300D01*
X6883200Y6400000D01*
X6906500D01*
X6929900Y6413300D01*
X6949900Y6433300D01*
X6966500Y6460000D01*
G01X3696700Y170000D02*
X3563300D01*
Y570000D01*
X3696700D01*
G01X3643300Y376700D02*
X3563300D01*
G01X3778500Y570000D02*
Y170000D01*
X3911900D01*
G01X4127100D02*
X3993700D01*
Y570000D01*
X4127100D01*
G01X4073700Y376700D02*
X3993700D01*
G01X4348900Y536700D02*
X4328900Y556700D01*
X4305600Y570000D01*
X4278900D01*
X4248900Y550000D01*
X4225600Y516700D01*
X4208900Y476700D01*
X4195600Y410000D01*
X4192300Y350000D01*
X4198900Y290000D01*
X4208900Y250000D01*
X4228900Y210000D01*
X4252300Y183300D01*
X4275600Y170000D01*
X4298900D01*
X4322300Y183300D01*
X4342300Y203300D01*
X4358900Y230000D01*
G01X4490800Y570000D02*
Y170000D01*
G01X4414100Y570000D02*
X4567500D01*
G01X4639300Y170000D02*
Y570000D01*
X4722700D01*
X4749300Y550000D01*
X4766000Y523300D01*
X4772700Y470000D01*
X4766000Y416700D01*
X4746000Y383300D01*
X4722700Y363300D01*
X4639300D01*
G01X4722700D02*
X4772700Y170000D01*
G01X4921200D02*
X4894500Y176700D01*
X4871200Y203300D01*
X4851200Y243300D01*
X4837900Y290000D01*
X4831200Y343300D01*
Y396700D01*
X4837900Y450000D01*
X4851200Y496700D01*
X4871200Y536700D01*
X4894500Y563300D01*
X4921200Y570000D01*
X4947900Y563300D01*
X4971200Y536700D01*
X4991200Y496700D01*
X5004500Y450000D01*
X5011200Y396700D01*
Y343300D01*
X5004500Y290000D01*
X4991200Y243300D01*
X4971200Y203300D01*
X4947900Y176700D01*
X4921200Y170000D01*
G01X5059700D02*
Y570000D01*
X5213100Y170000D01*
Y570000D01*
G01X5311600D02*
X5391600D01*
G01X5351600D02*
Y170000D01*
G01X5311600D02*
X5391600D01*
G01X5640100Y536700D02*
X5620100Y556700D01*
X5596800Y570000D01*
X5570100D01*
X5540100Y550000D01*
X5516800Y516700D01*
X5500100Y476700D01*
X5486800Y410000D01*
X5483500Y350000D01*
X5490100Y290000D01*
X5500100Y250000D01*
X5520100Y210000D01*
X5543500Y183300D01*
X5566800Y170000D01*
X5590100D01*
X5613500Y183300D01*
X5633500Y203300D01*
X5650100Y230000D01*
G01X6070500Y536700D02*
X6050500Y556700D01*
X6027200Y570000D01*
X6000500D01*
X5970500Y550000D01*
X5947200Y516700D01*
X5930500Y476700D01*
X5917200Y410000D01*
X5913900Y350000D01*
X5920500Y290000D01*
X5930500Y250000D01*
X5950500Y210000D01*
X5973900Y183300D01*
X5997200Y170000D01*
X6020500D01*
X6043900Y183300D01*
X6063900Y203300D01*
X6080500Y230000D01*
G01X6129100Y170000D02*
X6212400Y570000D01*
X6295700Y170000D01*
G01X6265700Y310000D02*
X6159100D01*
G01X6354300Y170000D02*
Y570000D01*
X6420900D01*
X6447600Y550000D01*
X6467600Y523300D01*
X6484300Y483300D01*
X6497600Y436700D01*
X6500900Y370000D01*
X6497600Y303300D01*
X6484300Y256700D01*
X6467600Y216700D01*
X6447600Y190000D01*
X6420900Y170000D01*
X6354300D01*
G54D11*
G01X373000Y3627000D02*
X627000D01*
Y2865000D01*
X373000D01*
Y3627000D01*
G01X665600Y3609700D02*
X657800Y3604800D01*
X652500Y3599000D01*
X649900Y3592100D01*
X652500Y3584400D01*
X657800Y3578500D01*
X665600Y3572700D01*
X676100Y3570700D01*
X728600D01*
G01X649900Y3511500D02*
X728600D01*
X712900Y3523200D01*
G01X649900D02*
Y3499800D01*
G01X1529400Y1772300D02*
Y1851000D01*
X1553800D01*
X1561600Y1847100D01*
X1566400Y1841800D01*
X1568400Y1831300D01*
X1566400Y1820800D01*
X1560600Y1814300D01*
X1553800Y1810300D01*
X1529400D01*
G01X1553800D02*
X1568400Y1772300D01*
G01X1627600D02*
X1634400Y1773600D01*
X1642200Y1777500D01*
X1647100Y1784100D01*
X1649000Y1793300D01*
X1647100Y1802500D01*
X1641200Y1810300D01*
X1632500Y1814300D01*
X1622700D01*
X1616900Y1816900D01*
X1612000Y1823500D01*
X1610100Y1832600D01*
X1613000Y1841800D01*
X1619800Y1848400D01*
X1627600Y1851000D01*
X1635400Y1848400D01*
X1642200Y1841800D01*
X1645100Y1832600D01*
X1643200Y1823500D01*
X1638300Y1816900D01*
X1632500Y1814300D01*
X1622700D01*
X1614000Y1810300D01*
X1608100Y1802500D01*
X1606200Y1793300D01*
X1608100Y1784100D01*
X1613000Y1777500D01*
X1620800Y1773600D01*
X1627600Y1772300D01*
G01X1253000Y1302400D02*
Y2013600D01*
X1507000D01*
Y1302400D01*
X1253000D01*
G01X1753000Y2952400D02*
Y3663600D01*
X2007000D01*
Y2952400D01*
X1753000D01*
G01X2299400Y1772300D02*
Y1851000D01*
X2323800D01*
X2331600Y1847100D01*
X2336400Y1841800D01*
X2338400Y1831300D01*
X2336400Y1820800D01*
X2330600Y1814300D01*
X2323800Y1810300D01*
X2299400D01*
G01X2323800D02*
X2338400Y1772300D01*
G01X2397600D02*
Y1851000D01*
X2385900Y1835300D01*
G01Y1772300D02*
X2409300D01*
G01X2023000Y1302400D02*
Y2013600D01*
X2277000D01*
Y1302400D01*
X2023000D01*
G01X2193100Y3227900D02*
X2183500Y3234300D01*
X2172200Y3238500D01*
X2159400D01*
X2144900Y3232100D01*
X2133600Y3221600D01*
X2125600Y3208900D01*
X2119100Y3187700D01*
X2117500Y3168600D01*
X2120800Y3149600D01*
X2125600Y3136900D01*
X2135200Y3124200D01*
X2146500Y3115700D01*
X2157700Y3111500D01*
X2169000D01*
X2180300Y3115700D01*
X2189900Y3122100D01*
X2198000Y3130500D01*
G01X2256700Y3217300D02*
X2266300Y3230000D01*
X2277600Y3236400D01*
X2290500Y3238500D01*
X2306600Y3234300D01*
X2317800Y3223700D01*
X2321000Y3211000D01*
X2319400Y3198300D01*
X2313000Y3187700D01*
X2280800Y3166500D01*
X2266300Y3151700D01*
X2256700Y3130500D01*
X2253500Y3111500D01*
X2321000D01*
G01X3044000Y3057000D02*
G03I-254000J0D01*
G01X2029400Y3422300D02*
Y3501000D01*
X2053800D01*
X2061600Y3497100D01*
X2066400Y3491800D01*
X2068400Y3481300D01*
X2066400Y3470800D01*
X2060600Y3464300D01*
X2053800Y3460300D01*
X2029400D01*
G01X2053800D02*
X2068400Y3422300D01*
G01X2109100Y3455100D02*
X2115900Y3464300D01*
X2121800Y3469500D01*
X2129500Y3472100D01*
X2136400Y3469500D01*
X2141200Y3464300D01*
X2145100Y3456400D01*
X2146100Y3447200D01*
X2145100Y3439400D01*
X2141200Y3431500D01*
X2135400Y3424900D01*
X2128600Y3422300D01*
X2120800Y3424900D01*
X2114000Y3432800D01*
X2110100Y3444600D01*
X2109100Y3457700D01*
X2111100Y3474800D01*
X2114000Y3483900D01*
X2118800Y3493100D01*
X2125700Y3499700D01*
X2132500Y3501000D01*
X2139300Y3498400D01*
X2144100Y3491800D01*
G01X2161600Y5897000D02*
X2314000D01*
X2377500Y5833500D01*
X2504500D01*
X2568000Y5897000D01*
X2720400D01*
Y4881000D01*
X2161600D01*
Y5897000D01*
G01X2979400Y1772300D02*
Y1851000D01*
X3003800D01*
X3011600Y1847100D01*
X3016400Y1841800D01*
X3018400Y1831300D01*
X3016400Y1820800D01*
X3010600Y1814300D01*
X3003800Y1810300D01*
X2979400D01*
G01X3003800D02*
X3018400Y1772300D01*
G01X3059100Y1837900D02*
X3064900Y1845800D01*
X3071800Y1849700D01*
X3079500Y1851000D01*
X3089300Y1848400D01*
X3096100Y1841800D01*
X3098000Y1833900D01*
X3097100Y1826100D01*
X3093200Y1819500D01*
X3073700Y1806400D01*
X3064900Y1797200D01*
X3059100Y1784100D01*
X3057200Y1772300D01*
X3098000D01*
G01X2703000Y1302400D02*
Y2013600D01*
X2957000D01*
Y1302400D01*
X2703000D01*
G01X3112600Y3412000D02*
X3103000Y3418400D01*
X3091700Y3422600D01*
X3078900D01*
X3064400Y3416200D01*
X3053100Y3405700D01*
X3045100Y3393000D01*
X3038600Y3371800D01*
X3037000Y3352700D01*
X3040300Y3333700D01*
X3045100Y3321000D01*
X3054700Y3308300D01*
X3066000Y3299800D01*
X3077200Y3295600D01*
X3088500D01*
X3099800Y3299800D01*
X3109400Y3306200D01*
X3117500Y3314600D01*
G01X3171400Y3321000D02*
X3181000Y3306200D01*
X3193900Y3297700D01*
X3208400Y3295600D01*
X3221200Y3297700D01*
X3234100Y3308300D01*
X3242100Y3321000D01*
X3243700Y3333700D01*
X3240500Y3348500D01*
X3229300Y3359100D01*
X3218000Y3363300D01*
X3203500D01*
G01X3218000D02*
X3227700Y3369700D01*
X3235700Y3380300D01*
X3238900Y3393000D01*
X3235700Y3405700D01*
X3227700Y3416200D01*
X3213200Y3422600D01*
X3198700Y3420500D01*
X3184200Y3412000D01*
G01X3198700Y3766000D02*
Y3639000D01*
X3158500D01*
X3145600Y3645400D01*
X3137600Y3653800D01*
X3134400Y3670800D01*
X3137600Y3687700D01*
X3147200Y3698300D01*
X3158500Y3704600D01*
X3198700D01*
G01X3158500D02*
X3134400Y3766000D01*
G01X3040300D02*
X3037100Y3738500D01*
X3032200Y3715200D01*
X3025800Y3694000D01*
X3017700Y3670800D01*
X3004900Y3639000D01*
X3069200D01*
G01X3211000Y4431500D02*
Y3796500D01*
X2703000D01*
Y4431500D01*
X3211000D01*
G01X2965700Y5752200D02*
Y5661200D01*
X2972100Y5642100D01*
X2985000Y5629400D01*
X3001000Y5625200D01*
X3017100Y5629400D01*
X3030000Y5642100D01*
X3036400Y5661200D01*
Y5752200D01*
G01X3130500Y5625200D02*
Y5752200D01*
X3111200Y5726800D01*
G01Y5625200D02*
X3149800D01*
G01X3789400Y1762300D02*
Y1841000D01*
X3813800D01*
X3821600Y1837100D01*
X3826400Y1831800D01*
X3828400Y1821300D01*
X3826400Y1810800D01*
X3820600Y1804300D01*
X3813800Y1800300D01*
X3789400D01*
G01X3813800D02*
X3828400Y1762300D01*
G01X3866200Y1778000D02*
X3872000Y1768900D01*
X3879800Y1763600D01*
X3888600Y1762300D01*
X3896400Y1763600D01*
X3904100Y1770200D01*
X3909000Y1778000D01*
X3910000Y1785900D01*
X3908000Y1795100D01*
X3901200Y1801600D01*
X3894400Y1804300D01*
X3885700D01*
G01X3894400D02*
X3900300Y1808200D01*
X3905100Y1814800D01*
X3907100Y1822600D01*
X3905100Y1830500D01*
X3900300Y1837100D01*
X3891500Y1841000D01*
X3882700Y1839700D01*
X3874000Y1834400D01*
G01X3513000Y1292400D02*
Y2003600D01*
X3767000D01*
Y1292400D01*
X3513000D01*
G01X3922600Y3412000D02*
X3913000Y3418400D01*
X3901700Y3422600D01*
X3888900D01*
X3874400Y3416200D01*
X3863100Y3405700D01*
X3855100Y3393000D01*
X3848600Y3371800D01*
X3847000Y3352700D01*
X3850300Y3333700D01*
X3855100Y3321000D01*
X3864700Y3308300D01*
X3876000Y3299800D01*
X3887200Y3295600D01*
X3898500D01*
X3909800Y3299800D01*
X3919400Y3306200D01*
X3927500Y3314600D01*
G01X4036100Y3295600D02*
Y3422600D01*
X3976500Y3331600D01*
X4057000D01*
G01X3904000Y3067000D02*
G03I-254000J0D01*
G01X3529000Y3808500D02*
Y4443500D01*
X4037000D01*
Y3808500D01*
X3529000D01*
G01X3541300Y4474000D02*
Y4601000D01*
X3581500D01*
X3594400Y4594600D01*
X3602400Y4586200D01*
X3605600Y4569200D01*
X3602400Y4552300D01*
X3592800Y4541700D01*
X3581500Y4535400D01*
X3541300D01*
G01X3581500D02*
X3605600Y4474000D01*
G01X3675600Y4488800D02*
X3686900Y4478200D01*
X3699700Y4474000D01*
X3712600Y4478200D01*
X3723900Y4490900D01*
X3731900Y4510000D01*
X3735100Y4529000D01*
Y4552300D01*
X3731900Y4571400D01*
X3723900Y4588300D01*
X3714200Y4596800D01*
X3702900Y4601000D01*
X3690100Y4596800D01*
X3680400Y4588300D01*
X3674000Y4575600D01*
X3670800Y4558700D01*
X3674000Y4543900D01*
X3682000Y4529000D01*
X3691700Y4520600D01*
X3702900Y4518400D01*
X3715800Y4522700D01*
X3725500Y4533300D01*
X3735100Y4552300D01*
G01X3466500Y5594000D02*
Y5721000D01*
X3506700D01*
X3519600Y5714600D01*
X3527600Y5706200D01*
X3530800Y5689200D01*
X3527600Y5672300D01*
X3518000Y5661700D01*
X3506700Y5655400D01*
X3466500D01*
G01X3506700D02*
X3530800Y5594000D01*
G01X3628100D02*
Y5721000D01*
X3608800Y5695600D01*
G01Y5594000D02*
X3647400D01*
G01X3727100Y5699800D02*
X3736700Y5712500D01*
X3748000Y5718900D01*
X3760900Y5721000D01*
X3777000Y5716800D01*
X3788200Y5706200D01*
X3791400Y5693500D01*
X3789800Y5680800D01*
X3783400Y5670200D01*
X3751200Y5649000D01*
X3736700Y5634200D01*
X3727100Y5613000D01*
X3723900Y5594000D01*
X3791400D01*
G01X3519000Y4928500D02*
Y5563500D01*
X4027000D01*
Y4928500D01*
X3519000D01*
G01X4559400Y1762300D02*
Y1841000D01*
X4583800D01*
X4591600Y1837100D01*
X4596400Y1831800D01*
X4598400Y1821300D01*
X4596400Y1810800D01*
X4590600Y1804300D01*
X4583800Y1800300D01*
X4559400D01*
G01X4583800D02*
X4598400Y1762300D01*
G01X4669300D02*
Y1841000D01*
X4633300Y1784600D01*
X4681900D01*
G01X4283000Y1292400D02*
Y2003600D01*
X4537000D01*
Y1292400D01*
X4283000D01*
G01X4714000Y3067000D02*
G03I-254000J0D01*
G01X4752600Y3392000D02*
X4743000Y3398400D01*
X4731700Y3402600D01*
X4718900D01*
X4704400Y3396200D01*
X4693100Y3385700D01*
X4685100Y3373000D01*
X4678600Y3351800D01*
X4677000Y3332700D01*
X4680300Y3313700D01*
X4685100Y3301000D01*
X4694700Y3288300D01*
X4706000Y3279800D01*
X4717200Y3275600D01*
X4728500D01*
X4739800Y3279800D01*
X4749400Y3286200D01*
X4757500Y3294600D01*
G01X4846700Y3275600D02*
Y3402600D01*
X4827400Y3377200D01*
G01Y3275600D02*
X4866000D01*
G01X5487600Y4183000D02*
X4776400D01*
Y4437000D01*
X5487600D01*
Y4183000D01*
G01X5643000Y1302400D02*
Y2013600D01*
X5897000D01*
Y1302400D01*
X5643000D01*
G01X5199400Y1762300D02*
Y1841000D01*
X5223800D01*
X5231600Y1837100D01*
X5236400Y1831800D01*
X5238400Y1821300D01*
X5236400Y1810800D01*
X5230600Y1804300D01*
X5223800Y1800300D01*
X5199400D01*
G01X5223800D02*
X5238400Y1762300D01*
G01X5276200Y1774100D02*
X5282000Y1767500D01*
X5288800Y1763600D01*
X5297600Y1762300D01*
X5306400Y1764900D01*
X5313200Y1770200D01*
X5318000Y1779400D01*
X5319000Y1789800D01*
X5317100Y1800300D01*
X5312200Y1806900D01*
X5305400Y1812100D01*
X5298600Y1813500D01*
X5291800Y1812100D01*
X5283000Y1806900D01*
X5285900Y1841000D01*
X5312200D01*
G01X4923000Y1292400D02*
Y2003600D01*
X5177000D01*
Y1292400D01*
X4923000D01*
G01X5544000Y3047000D02*
G03I-254000J0D01*
G01X5071600Y5897000D02*
X5224000D01*
X5287500Y5833500D01*
X5414500D01*
X5478000Y5897000D01*
X5630400D01*
Y4881000D01*
X5071600D01*
Y5897000D01*
G01X5017700Y4420100D02*
X4939000D01*
Y4444500D01*
X4942900Y4452300D01*
X4948200Y4457100D01*
X4958700Y4459100D01*
X4969200Y4457100D01*
X4975700Y4451300D01*
X4979700Y4444500D01*
Y4420100D01*
G01Y4444500D02*
X5017700Y4459100D01*
G01Y4518300D02*
X4939000D01*
X4954700Y4506600D01*
G01X5017700D02*
Y4530000D01*
G01X4939000Y4597000D02*
X4941600Y4589200D01*
X4948200Y4583400D01*
X4956100Y4579500D01*
X4966500Y4576600D01*
X4978400Y4575600D01*
X4990200Y4576600D01*
X5000600Y4579500D01*
X5008500Y4583400D01*
X5015100Y4589200D01*
X5017700Y4597000D01*
X5015100Y4604800D01*
X5008500Y4610600D01*
X5000600Y4614500D01*
X4990200Y4617400D01*
X4978400Y4618400D01*
X4966500Y4617400D01*
X4956100Y4614500D01*
X4948200Y4610600D01*
X4941600Y4604800D01*
X4939000Y4597000D01*
G01X5880100Y1772300D02*
Y1851000D01*
X5904500D01*
X5912300Y1847100D01*
X5917100Y1841800D01*
X5919100Y1831300D01*
X5917100Y1820800D01*
X5911300Y1814300D01*
X5904500Y1810300D01*
X5880100D01*
G01X5904500D02*
X5919100Y1772300D01*
G01X5978300D02*
Y1851000D01*
X5966600Y1835300D01*
G01Y1772300D02*
X5990000D01*
G01X6068700D02*
Y1851000D01*
X6032700Y1794600D01*
X6081300D01*
G01X5875700Y5752200D02*
Y5661200D01*
X5882100Y5642100D01*
X5895000Y5629400D01*
X5911000Y5625200D01*
X5927100Y5629400D01*
X5940000Y5642100D01*
X5946400Y5661200D01*
Y5752200D01*
G01X6010000Y5731000D02*
X6019600Y5743700D01*
X6030900Y5750100D01*
X6043800Y5752200D01*
X6059900Y5748000D01*
X6071100Y5737400D01*
X6074300Y5724700D01*
X6072700Y5712000D01*
X6066300Y5701400D01*
X6034100Y5680200D01*
X6019600Y5665400D01*
X6010000Y5644200D01*
X6006800Y5625200D01*
X6074300D01*
G01X6303000Y5022400D02*
Y5733600D01*
X6557000D01*
Y5022400D01*
X6303000D01*
G01X7897600Y3543000D02*
X7186400D01*
Y3797000D01*
X7897600D01*
Y3543000D01*
G01X6540100Y5492300D02*
Y5571000D01*
X6564500D01*
X6572300Y5567100D01*
X6577100Y5561800D01*
X6579100Y5551300D01*
X6577100Y5540800D01*
X6571300Y5534300D01*
X6564500Y5530300D01*
X6540100D01*
G01X6564500D02*
X6579100Y5492300D01*
G01X6638300D02*
Y5571000D01*
X6626600Y5555300D01*
G01Y5492300D02*
X6650000D01*
G01X6717000D02*
Y5571000D01*
X6705300Y5555300D01*
G01Y5492300D02*
X6728700D01*
G01X7702300Y1109900D02*
X7781000D01*
Y1085500D01*
X7777100Y1077700D01*
X7771800Y1072900D01*
X7761300Y1070900D01*
X7750800Y1072900D01*
X7744300Y1078700D01*
X7740300Y1085500D01*
Y1109900D01*
G01Y1085500D02*
X7702300Y1070900D01*
G01Y1011700D02*
X7781000D01*
X7765300Y1023400D01*
G01X7702300D02*
Y1000000D01*
G01X7714100Y954400D02*
X7707500Y948600D01*
X7703600Y941800D01*
X7702300Y933000D01*
X7704900Y924200D01*
X7710200Y917400D01*
X7719400Y912600D01*
X7729800Y911600D01*
X7740300Y913500D01*
X7746900Y918400D01*
X7752100Y925200D01*
X7753500Y932000D01*
X7752100Y938800D01*
X7746900Y947600D01*
X7781000Y944700D01*
Y918400D01*
G01X7232400Y1347000D02*
X7943600D01*
Y1093000D01*
X7232400D01*
Y1347000D01*
G01X7301600Y3257000D02*
X7454000D01*
X7517500Y3193500D01*
X7644500D01*
X7708000Y3257000D01*
X7860400D01*
Y2241000D01*
X7301600D01*
Y3257000D01*
G01X7311600Y5067000D02*
X7464000D01*
X7527500Y5003500D01*
X7654500D01*
X7718000Y5067000D01*
X7870400D01*
Y4051000D01*
X7311600D01*
Y5067000D01*
G01X7427700Y3780100D02*
X7349000D01*
Y3804500D01*
X7352900Y3812300D01*
X7358200Y3817100D01*
X7368700Y3819100D01*
X7379200Y3817100D01*
X7385700Y3811300D01*
X7389700Y3804500D01*
Y3780100D01*
G01Y3804500D02*
X7427700Y3819100D01*
G01Y3878300D02*
X7349000D01*
X7364700Y3866600D01*
G01X7427700D02*
Y3890000D01*
G01X7394900Y3938500D02*
X7385700Y3945300D01*
X7380500Y3951200D01*
X7377900Y3958900D01*
X7380500Y3965800D01*
X7385700Y3970600D01*
X7393600Y3974500D01*
X7402800Y3975500D01*
X7410600Y3974500D01*
X7418500Y3970600D01*
X7425100Y3964800D01*
X7427700Y3958000D01*
X7425100Y3950200D01*
X7417200Y3943400D01*
X7405400Y3939500D01*
X7392300Y3938500D01*
X7375200Y3940500D01*
X7366100Y3943400D01*
X7356900Y3948200D01*
X7350300Y3955100D01*
X7349000Y3961900D01*
X7351600Y3968700D01*
X7358200Y3973500D01*
G01X7712300Y5689900D02*
X7791000D01*
Y5665500D01*
X7787100Y5657700D01*
X7781800Y5652900D01*
X7771300Y5650900D01*
X7760800Y5652900D01*
X7754300Y5658700D01*
X7750300Y5665500D01*
Y5689900D01*
G01Y5665500D02*
X7712300Y5650900D01*
G01Y5591700D02*
X7791000D01*
X7775300Y5603400D01*
G01X7712300D02*
Y5580000D01*
G01X7728000Y5534400D02*
X7718900Y5528600D01*
X7713600Y5520800D01*
X7712300Y5512000D01*
X7713600Y5504200D01*
X7720200Y5496500D01*
X7728000Y5491600D01*
X7735900Y5490600D01*
X7745100Y5492600D01*
X7751600Y5499400D01*
X7754300Y5506200D01*
Y5514900D01*
G01Y5506200D02*
X7758200Y5500300D01*
X7764800Y5495500D01*
X7772600Y5493500D01*
X7780500Y5495500D01*
X7787100Y5500300D01*
X7791000Y5509100D01*
X7789700Y5517900D01*
X7784400Y5526600D01*
G01X7242400Y5927000D02*
X7953600D01*
Y5673000D01*
X7242400D01*
Y5927000D01*
G01X8105700Y3112200D02*
Y3021200D01*
X8112100Y3002100D01*
X8125000Y2989400D01*
X8141000Y2985200D01*
X8157100Y2989400D01*
X8170000Y3002100D01*
X8176400Y3021200D01*
Y3112200D01*
G01X8289900Y2985200D02*
Y3112200D01*
X8230300Y3021200D01*
X8310800D01*
G01X8115700Y4922200D02*
Y4831200D01*
X8122100Y4812100D01*
X8135000Y4799400D01*
X8151000Y4795200D01*
X8167100Y4799400D01*
X8180000Y4812100D01*
X8186400Y4831200D01*
Y4922200D01*
G01X8245200Y4820600D02*
X8254800Y4805800D01*
X8267700Y4797300D01*
X8282200Y4795200D01*
X8295000Y4797300D01*
X8307900Y4807900D01*
X8315900Y4820600D01*
X8317500Y4833300D01*
X8314300Y4848100D01*
X8303100Y4858700D01*
X8291800Y4862900D01*
X8277300D01*
G01X8291800D02*
X8301500Y4869300D01*
X8309500Y4879900D01*
X8312700Y4892600D01*
X8309500Y4905300D01*
X8301500Y4915800D01*
X8287000Y4922200D01*
X8272500Y4920100D01*
X8258000Y4911600D01*
G01X9344600Y3370000D02*
X9352400Y3374900D01*
X9357700Y3380700D01*
X9360300Y3387600D01*
X9357700Y3395300D01*
X9352400Y3401200D01*
X9344600Y3407000D01*
X9334100Y3409000D01*
X9281600D01*
G01X9294700Y3449700D02*
X9286800Y3455500D01*
X9282900Y3462400D01*
X9281600Y3470100D01*
X9284200Y3479900D01*
X9290800Y3486700D01*
X9298700Y3488600D01*
X9306500Y3487700D01*
X9313100Y3483800D01*
X9326200Y3464300D01*
X9335400Y3455500D01*
X9348500Y3449700D01*
X9360300Y3447800D01*
Y3488600D01*
G01X9627000Y3373000D02*
X9373000D01*
Y3881000D01*
X9627000D01*
Y3373000D01*
M02*
