G04 ================== begin FILE IDENTIFICATION RECORD ==================*
G04 Layout Name:  C:/USERS/USER/DESKTOP/CHOPPING WAVE OSC/allegro/CHOPPING WAVE OSC.brd*
G04 Film Name:    TOP*
G04 File Format:  Gerber RS274X*
G04 File Origin:  Cadence Allegro 17.2-P019*
G04 Origin Date:  Wed Jul 31 11:06:13 2019*
G04 *
G04 Layer:  ETCH/TOP*
G04 Layer:  PIN/TOP*
G04 Layer:  VIA CLASS/TOP*
G04 *
G04 Offset:    (0.000 0.000)*
G04 Mirror:    No*
G04 Mode:      Positive*
G04 Rotation:  0*
G04 FullContactRelief:  No*
G04 UndefLineWidth:     0.000*
G04 ================== end FILE IDENTIFICATION RECORD ====================*
%FSLAX25Y25*MOMM*%
%IR0*IPPOS*OFA0.00000B0.00000*MIA0B0*SFA1.00000B1.00000*%
%ADD11C,1.524*%
%ADD12C,1.651*%
%ADD13R,1.524X1.524*%
%ADD10C,.635*%
%ADD14C,1.*%
%ADD15C,.5*%
G75*
%LPD*%
G75*
G54D10*
X500000Y500000D03*
Y6500000D03*
X9500000Y500000D03*
Y6500000D03*
G54D11*
X500000Y2992000D03*
Y3246000D03*
Y3500000D03*
X2060000Y5008000D03*
Y5262000D03*
Y5516000D03*
X2790000Y3184000D03*
Y2930000D03*
X3084000Y4114000D03*
X2830000Y3860000D03*
X2822000Y5008000D03*
X2830000Y4368000D03*
X2822000Y5262000D03*
Y5516000D03*
Y5770000D03*
X3650000Y3194000D03*
Y2940000D03*
X3910000Y3872000D03*
X3656000Y4126000D03*
X3910000Y4380000D03*
X3900000Y4992000D03*
X3646000Y5246000D03*
X3900000Y5500000D03*
X4460000Y3194000D03*
Y2940000D03*
X4970000Y5008000D03*
Y5262000D03*
Y5516000D03*
X5290000Y3174000D03*
Y2920000D03*
X5732000Y5008000D03*
Y5262000D03*
Y5516000D03*
Y5770000D03*
X7200000Y2368000D03*
Y2622000D03*
Y2876000D03*
X7210000Y4178000D03*
Y4432000D03*
Y4686000D03*
X7962000Y2368000D03*
Y2622000D03*
Y2876000D03*
Y3130000D03*
X7972000Y4178000D03*
Y4432000D03*
Y4686000D03*
Y4940000D03*
X9500000Y3754000D03*
Y3500000D03*
G54D12*
X1380000Y1150000D03*
Y2166000D03*
X1880000Y2800000D03*
Y3816000D03*
X2150000Y1150000D03*
Y2166000D03*
X2830000Y1150000D03*
Y2166000D03*
X3640000Y1140000D03*
Y2156000D03*
X4410000Y1140000D03*
Y2156000D03*
X4624000Y4310000D03*
X5770000Y1150000D03*
X5050000Y1140000D03*
X5770000Y2166000D03*
X5050000Y2156000D03*
X5640000Y4310000D03*
X6430000Y4870000D03*
Y5886000D03*
X7080000Y1220000D03*
X7034000Y3670000D03*
X7090000Y5800000D03*
X8050000Y3670000D03*
X8096000Y1220000D03*
X8106000Y5800000D03*
G54D13*
X2060000Y5770000D03*
X4970000D03*
X7200000Y3130000D03*
X7210000Y4940000D03*
G54D14*
G01X500000Y3246000D02*
X1070000D01*
X2150000Y2166000D01*
G01D02*
X2830000D01*
G01X3900000Y4992000D02*
X3777100Y4869100D01*
X2198900D01*
X2060000Y5008000D01*
G01X2830000Y2166000D02*
X3494600D01*
Y2156000D01*
X3640000D01*
G01X2822000Y5516000D02*
X3745000D01*
X3761000Y5500000D01*
X3900000D01*
G01X3640000Y2156000D02*
X4410000D01*
G01X3900000Y5500000D02*
X4736700D01*
X4831100Y5594400D01*
Y5872200D01*
X4867800Y5908900D01*
X5072200D01*
X5108900Y5872200D01*
Y5667800D01*
X5276700Y5500000D01*
X5577000D01*
X5593000Y5516000D01*
X5732000D01*
G01X3900000Y4992000D02*
X4815000D01*
X4831000Y5008000D01*
X4970000D01*
G01X8050000Y3670000D02*
X7745500Y3365500D01*
X7239000D01*
X7142400Y3268900D01*
X7097800D01*
X7061100Y3232200D01*
Y3187600D01*
X6350000Y2476500D01*
X4730500D01*
X4410000Y2156000D01*
G01X7210000Y4178000D02*
X6879500Y4508500D01*
X5469500D01*
X4970000Y5008000D01*
G01X5732000Y5516000D02*
X6307500Y6091500D01*
X6430000D01*
X6667500Y5854000D01*
Y5178900D01*
X6767500Y5078900D01*
X7579100D01*
X7972000Y4686000D01*
G01X7210000Y4432000D02*
X7308300Y4333700D01*
X7386300D01*
X8050000Y3670000D01*
G01D02*
X9277000D01*
X9361000Y3754000D01*
X9500000D01*
G54D15*
G01X2830000Y3860000D02*
X2044400D01*
X2000400Y3816000D01*
X1880000D01*
G01X5290000Y3174000D02*
X5156100Y3307900D01*
X2659400D01*
X2603500Y3252000D01*
Y3116500D01*
X2790000Y2930000D01*
G01Y3184000D02*
X3034000Y2940000D01*
X3650000D01*
G01X2830000Y4368000D02*
X3084000Y4114000D01*
G01X3656000Y4126000D02*
X3210000D01*
X3198000Y4114000D01*
X3084000D01*
G01X4460000Y2940000D02*
X4019500D01*
X4000500Y2921000D01*
X3923000D01*
X3650000Y3194000D01*
G01X3656000Y4126000D02*
X3910000Y4380000D01*
G01Y3872000D02*
X3990700Y3791300D01*
X4108800D01*
X4127500Y3810000D01*
X5140000D01*
X5640000Y4310000D01*
G01X3646000Y5246000D02*
X4840000D01*
X4856000Y5262000D01*
X4970000D01*
G01X4410000Y1140000D02*
X5050000D01*
G01X6430000Y5886000D02*
Y5765600D01*
X6040300Y5375900D01*
X5110100D01*
X4970000Y5516000D01*
G01X5770000Y2166000D02*
X6490000D01*
X7200000Y2876000D01*
G01X7210000Y4686000D02*
X6614000D01*
X6430000Y4870000D01*
G01X5732000Y5262000D02*
X6038000D01*
X6430000Y4870000D01*
G01X7962000Y2622000D02*
X8042700Y2702700D01*
Y2795600D01*
X8075900Y2828800D01*
Y3377000D01*
X8199000Y3500000D01*
X9500000D01*
M02*
